HIERARCHY
ROOT Hips
{
	OFFSET 0.000000 0.000000 0.000000
	CHANNELS 6 Xposition Yposition Zposition Zrotation Yrotation Xrotation 
	JOINT LHipJoint
	{
		OFFSET 0.000000 0.000000 0.000000
		CHANNELS 3 Zrotation Yrotation Xrotation
		JOINT LeftUpLeg
		{
			OFFSET 1.363060 -1.794630 0.839290
			CHANNELS 3 Zrotation Yrotation Xrotation
			JOINT LeftLeg
			{
				OFFSET 2.448110 -6.726130 0.000000
				CHANNELS 3 Zrotation Yrotation Xrotation
				JOINT LeftFoot
				{
					OFFSET 2.562200 -7.039590 0.000000
					CHANNELS 3 Zrotation Yrotation Xrotation
					JOINT LeftToeBase
					{
						OFFSET 0.157640 -0.433110 2.322550
						CHANNELS 3 Zrotation Yrotation Xrotation
						End Site
						{
							OFFSET 0.000000 0.000000 0.000000
						}
					}
				}
			}
		}
	}
	JOINT RHipJoint
	{
		OFFSET 0.000000 0.000000 0.000000
		CHANNELS 3 Zrotation Yrotation Xrotation
		JOINT RightUpLeg
		{
			OFFSET -1.305520 -1.794630 0.839290
			CHANNELS 3 Zrotation Yrotation Xrotation
			JOINT RightLeg
			{
				OFFSET -2.542530 -6.985550 0.000000
				CHANNELS 3 Zrotation Yrotation Xrotation
				JOINT RightFoot
				{
					OFFSET -2.568260 -7.056230 0.000000
					CHANNELS 3 Zrotation Yrotation Xrotation
					JOINT RightToeBase
					{
						OFFSET -0.164730 -0.452590 2.363150
						CHANNELS 3 Zrotation Yrotation Xrotation
						End Site
						{
							OFFSET 0.000000 0.000000 0.000000
						}
					}
				}
			}
		}
	}
	JOINT LowerBack
	{
		OFFSET 0.000000 0.000000 0.000000
		CHANNELS 3 Zrotation Yrotation Xrotation
		JOINT Spine
		{
			OFFSET 0.028270 2.035590 -0.193380
			CHANNELS 3 Zrotation Yrotation Xrotation
			JOINT Spine1
			{
				OFFSET 0.056720 2.048850 -0.042750
				CHANNELS 3 Zrotation Yrotation Xrotation
				JOINT Neck
				{
					OFFSET 0.000000 0.000000 0.000000
					CHANNELS 3 Zrotation Yrotation Xrotation
					JOINT Neck1
					{
						OFFSET -0.054170 1.746240 0.172020
						CHANNELS 3 Zrotation Yrotation Xrotation
						JOINT Head
						{
							OFFSET 0.104070 1.761360 -0.123970
							CHANNELS 3 Zrotation Yrotation Xrotation
							End Site
							{
								OFFSET 0.000000 0.000000 0.000000
							}
						}
					}
				}
				JOINT LeftShoulder
				{
					OFFSET 0.000000 0.000000 0.000000
					CHANNELS 3 Zrotation Yrotation Xrotation
					JOINT LeftArm
					{
						OFFSET 3.362410 1.200890 -0.311210
						CHANNELS 3 Zrotation Yrotation Xrotation
						JOINT LeftForeArm
						{
							OFFSET 4.983000 -0.000000 -0.000000
							CHANNELS 3 Zrotation Yrotation Xrotation
							JOINT LeftHand
							{
								OFFSET 3.483560 -0.000000 -0.000000
								CHANNELS 3 Zrotation Yrotation Xrotation
								JOINT LeftFingerBase
								{
									OFFSET 0.000000 0.000000 0.000000
									CHANNELS 3 Zrotation Yrotation Xrotation
									JOINT LeftHandIndex1
									{
										OFFSET 0.715260 -0.000000 -0.000000
										CHANNELS 3 Zrotation Yrotation Xrotation
										End Site
										{
											OFFSET 0.000000 0.000000 0.000000
										}
									}
								}
								JOINT LThumb
								{
									OFFSET 0.000000 0.000000 0.000000
									CHANNELS 3 Zrotation Yrotation Xrotation
									End Site
									{
										OFFSET 0.000000 0.000000 0.000000
									}
								}
							}
						}
					}
				}
				JOINT RightShoulder
				{
					OFFSET 0.000000 0.000000 0.000000
					CHANNELS 3 Zrotation Yrotation Xrotation
					JOINT RightArm
					{
						OFFSET -3.136600 1.374050 -0.404650
						CHANNELS 3 Zrotation Yrotation Xrotation
						JOINT RightForeArm
						{
							OFFSET -5.241900 -0.000000 -0.000000
							CHANNELS 3 Zrotation Yrotation Xrotation
							JOINT RightHand
							{
								OFFSET -3.444170 -0.000000 -0.000000
								CHANNELS 3 Zrotation Yrotation Xrotation
								JOINT RightFingerBase
								{
									OFFSET 0.000000 0.000000 0.000000
									CHANNELS 3 Zrotation Yrotation Xrotation
									JOINT RightHandIndex1
									{
										OFFSET -0.622530 -0.000000 -0.000000
										CHANNELS 3 Zrotation Yrotation Xrotation
										End Site
										{
											OFFSET 0.000000 0.000000 0.000000
										}
									}
								}
								JOINT RThumb
								{
									OFFSET 0.000000 0.000000 0.000000
									CHANNELS 3 Zrotation Yrotation Xrotation
									End Site
									{
										OFFSET 0.000000 0.000000 0.000000
									}
								}
							}
						}
					}
				}
			}
		}
	}
}
MOTION
Frames: 4
Frame Time: 0.016667
0.586107 17.556592 0.586107 3.478580 -12.504685 3.137998 -18.517281 28.833713 16.369755 32.208664 -33.657518 -42.470555 -73.708819 37.414046 -97.863648 29.175253 1.622652 159.152519 0.000000 0.000000 0.000000 -4.140713 -18.236294 13.288180 11.545265 21.402165 -21.584406 5.961461 4.349782 22.615544 -3.384837 23.070076 -27.584472 0.000000 0.000000 0.000000 24.372628 15.237848 -20.486006 -23.893149 16.454223 61.538838 4.172930 -0.779612 -25.244862 7.763523 3.356588 -20.141557 5.854123 3.341988 -30.017084 0.000000 0.000000 0.000000 0.322526 4.746124 13.233729 -76.694420 -0.285116 11.938575 10.020268 -81.865692 1.418850 -9.986362 5.131239 0.710847 -10.041883 5.087441 -0.000000 0.000000 0.000000 0.000000 0.000000 0.000000 0.000000 -4.396809 -17.965442 4.357452 65.937133 2.811331 21.765082 17.969926 74.429819 0.729465 -0.553924 15.819762 0.359939 -0.575853 15.828477 0.000000 0.000000 0.000000 0.000000 0.000000 0.000000 0.000000 
0.645804 17.623589 0.797209 -2.281617 -4.936505 -3.678477 -30.915215 39.203747 -5.087076 7.953436 8.187164 -37.517928 167.722304 -85.575499 -171.539167 17.934674 79.017026 -107.390769 0.000000 0.000000 0.000000 -0.964062 -25.379149 22.921921 9.715971 19.678207 -22.464355 6.599199 3.058321 21.419691 -2.832560 21.243159 -26.970096 0.000000 0.000000 0.000000 31.660312 9.224855 -18.397068 -27.101075 11.151026 60.058315 5.618080 -1.883708 -23.484870 4.335320 0.868945 -9.371347 0.434873 0.709246 -8.324156 0.000000 0.000000 0.000000 -0.295672 11.641021 1.885893 -71.931600 -19.145545 -19.851958 -134.858570 -78.854731 175.339377 11.084662 -1.713595 -1.856700 10.331579 -2.080501 -0.000000 0.000000 0.000000 0.000000 0.000000 0.000000 0.000000 1.043049 -19.653112 3.625815 59.126616 6.835681 13.818698 29.458439 54.912177 0.360283 -4.946482 -14.330391 0.183774 -5.011851 -14.315625 0.000000 0.000000 0.000000 0.000000 0.000000 0.000000 0.000000 
0.707510 17.692404 1.007954 5.990003 -19.636325 3.759526 -16.875197 16.354557 18.705038 26.848215 -37.911749 -40.239704 19.310371 48.480178 -67.457136 -31.946188 27.081708 77.059278 0.000000 0.000000 0.000000 -3.017112 -11.980630 9.261753 6.892289 20.282975 -20.156563 7.533426 4.486696 22.284147 -3.084252 22.889792 -26.057327 0.000000 0.000000 0.000000 28.114038 6.779371 -9.424521 -24.327978 5.581065 27.861332 0.410156 1.119810 -6.968432 -18.347156 6.604411 9.535533 -5.198675 -1.430836 18.900165 0.000000 0.000000 0.000000 9.546762 4.222513 -15.813828 -72.335482 -7.474952 18.997137 6.237170 -37.632883 149.033714 -124.733199 37.470223 -51.832091 -103.413300 -85.519429 0.000000 0.000000 0.000000 0.000000 0.000000 0.000000 0.000000 11.947874 -13.697548 -2.060081 46.464664 12.153371 7.754372 28.724315 32.876147 3.643964 -9.269795 -22.704551 1.860760 -9.836946 -22.690293 -0.000000 0.000000 0.000000 0.000000 0.000000 0.000000 0.000000 
0.214796 17.363014 0.655532 -4.387586 -10.772096 9.628389 -18.826355 18.792151 -8.814049 17.391951 -38.578613 -22.972681 -35.960785 -58.461179 -43.855800 173.263258 -57.287570 -6.236365 0.000000 0.000000 0.000000 5.263025 -14.599794 5.473137 15.311381 17.974284 -19.296041 2.999353 1.007084 25.293334 -3.556048 22.024796 -32.463457 0.000000 0.000000 0.000000 5.919346 -7.758656 9.637917 -2.517994 -6.744513 -2.735647 2.698730 -0.124975 -38.097163 -17.404137 8.079125 39.037483 -5.525703 0.446010 23.936257 0.000000 0.000000 0.000000 1.681077 4.474755 -75.911665 -48.248128 -3.699103 88.817358 -37.551791 39.437253 -110.026720 -17.642164 89.077563 58.410122 -25.620242 39.406328 0.000000 0.000000 0.000000 0.000000 0.000000 0.000000 0.000000 17.819977 -7.376901 14.489116 36.230495 -1.450335 9.873236 33.568941 20.078755 4.374660 -9.702804 -19.730875 2.218840 -10.258273 -19.783312 0.000000 0.000000 0.000000 0.000000 0.000000 0.000000 0.000000 
